<?xml version="1.0" encoding="utf-8"?>
<!-- Generator: Adobe Illustrator 28.1.0, SVG Export Plug-In . SVG Version: 6.00 Build 0)  -->
<svg version="1.1" id="Capa_1" xmlns="http://www.w3.org/2000/svg" xmlns:xlink="http://www.w3.org/1999/xlink" x="0px" y="0px"
	 viewBox="0 0 500 217" style="enable-background:new 0 0 500 217;" xml:space="preserve">
<style type="text/css">
	.st0{fill:#B2B2B2;}
	.st1{fill:#D03229;stroke:#D02E26;stroke-width:0.5927;stroke-miterlimit:10;}
	.st2{fill:#D03229;stroke:#D02E26;stroke-width:1.1853;}
	.st3{fill:#B2B2B2;stroke:#B2B2B2;stroke-width:0.5927;}
	.st4{fill:#D62A34;stroke:#D62A34;stroke-width:1.1853;}
	.st5{fill:#D62A34;stroke:#D62A34;stroke-width:0.5927;stroke-miterlimit:10;}
</style>
<g>
	<g id="merkdo">
		<path id="O" class="st0" d="M485.5,105c0,28-18.5,40.4-36.7,40.4c-20.1,0-35.9-14.7-35.9-39.2c0-25,15.4-40.3,37-40.3
			C471.2,66,485.5,81.9,485.5,105z M433.4,106.7c0,13,6,22.9,15.4,22.9c8.9,0,15.2-9.4,15.2-23.2c0-10.5-4.3-22.8-15-22.8
			C437.9,83.6,433.4,95.4,433.4,106.7z"/>
		<path id="Punto" class="st0" d="M408,108.7c0,5.7-3.3,8.3-6.6,8.3c-3.7,0-6.5-3.1-6.5-8c0-5.1,2.9-8.3,6.7-8.3
			C405.5,100.7,408,104.1,408,108.7z M398.4,108.9c0,2.8,1,5,2.4,5c1.4,0,2.3-2.1,2.3-5.1c0-2.2-0.7-5-2.4-5
			C399.1,103.8,398.4,106.6,398.4,108.9z"/>
		<path id="D" class="st0" d="M327.5,79.8c5.6-5,12.6-7.6,20-7.6c9.8,0,16.9,4,20.1,9.3h0.3V41h18.1v84.2c0,7.4,0.3,15.3,0.6,20.1
			h-16l-0.9-11.3h-0.3c-4.8,6.8-12.4,11.4-22.7,11.4c-7.1,0-14.2-1-19.4-5.5 M368,103.6c0-1.5-0.1-3.4-0.4-4.9
			c-1.6-6.9-7.3-12.6-15.6-12.6c-11.6,0-18.1,10.3-18.1,23.5c0,13.2,6.5,22.8,17.9,22.8c7.4,0,13.8-5,15.6-12.8
			c0.4-1.6,0.6-3.4,0.6-5.3V103.6z"/>
		<path id="K" class="st0" d="M327.5,41.3h-19.5v56.3l-24-27.9h-24.8l30.6,35.8L255.4,145h24.5l30-37.2v36.9h17.6v-4.3
			c0,0-14.1-10.7-11.9-34.6c0,0,1.3-15.4,11.6-26.3V40.9"/>
		<path id="R" class="st1" d="M202.5,67.4h19.4v17.8h0.6c7.2-17.2,15.5-19.5,22.9-19.8v27.1c-8.5,0-13.9,0-22.1,7.1v46.3h-20.7V67.4
			z"/>
		<path id="E" class="st1" d="M142.7,111.3c0.5,13.7,10.9,19.6,23,19.6c8.8,0,14.9-1.4,20.7-3.4l2.8,13.1
			c-6.5,2.8-15.4,4.8-26.1,4.8c-24.3,0-38.6-15.1-38.6-38.3c0-21,12.6-40.8,36.6-40.8c24.3,0,32.3,20.3,32.3,36.9
			c0,3.6-0.3,6.4-0.6,8.1H142.7z M175.6,97.9c0.2-7-2.9-18.5-15.5-18.5c-11.7,0-16.6,10.8-17.4,18.5H175.6z"/>
		<path id="M" class="st1" d="M14.5,67.3H33V82h0.6c8-15.5,19.1-16.6,22.6-16.6c13.3,0,16,10.5,17,14.7H74
			c3.8-5.6,10.2-14.7,23.7-14.7c7.8,0,14.4,4,16.9,11.4c1.6,4.7,1.9,14.4,1.9,19.5v49.4H96.2V92.4c0-3.7-0.9-8.6-7.7-8.6
			c-3,0-6.2,0.7-12.9,7.3v54.8H55.4V94.3c0-3.3,0-10.7-7.4-10.7c-4.3,0-7.7,2.8-13.2,7.7v54.5H14.5V67.3z"/>
	</g>
	<g id="Slogan">
		<path class="st2" d="M27.8,155.4c0,0.6-0.1,1.1-0.4,1.6c-0.3,0.5-0.6,0.9-1,1.3c0.7,0.4,1.3,1,1.7,1.7c0.4,0.7,0.6,1.5,0.6,2.4
			c0,0.6-0.1,1.3-0.4,1.8c-0.2,0.6-0.6,1.1-1,1.5c-0.4,0.4-0.9,0.8-1.5,1s-1.2,0.4-1.8,0.4h-4.3c-0.2,0-0.4-0.1-0.5-0.2
			c-0.1-0.1-0.2-0.3-0.2-0.5v-14c0-0.2,0.1-0.4,0.2-0.5c0.1-0.2,0.3-0.2,0.5-0.2H24c0.5,0,1,0.1,1.5,0.3c0.5,0.2,0.9,0.5,1.2,0.8
			c0.3,0.3,0.6,0.7,0.8,1.2C27.7,154.3,27.8,154.8,27.8,155.4z M20.4,157.6H24c0.3,0,0.6-0.1,0.9-0.2c0.3-0.1,0.5-0.3,0.7-0.5
			c0.2-0.2,0.4-0.4,0.5-0.7c0.1-0.3,0.2-0.6,0.2-0.9c0-0.3-0.1-0.6-0.2-0.9c-0.1-0.3-0.3-0.5-0.5-0.7c-0.2-0.2-0.4-0.4-0.7-0.5
			c-0.3-0.1-0.6-0.2-0.9-0.2h-3.6V157.6z M27.2,162.4c0-0.4-0.1-0.9-0.3-1.2c-0.2-0.4-0.4-0.7-0.7-1c-0.3-0.3-0.6-0.5-1-0.7
			c-0.4-0.2-0.8-0.3-1.2-0.3h-3.6v6.5H24c0.4,0,0.9-0.1,1.2-0.3c0.4-0.2,0.7-0.4,1-0.7c0.3-0.3,0.5-0.6,0.7-1
			C27.1,163.2,27.2,162.8,27.2,162.4z"/>
		<path class="st3" d="M51.6,152.3c0-0.2,0.1-0.4,0.2-0.5c0.1-0.2,0.3-0.2,0.5-0.2h7.4c0.2,0,0.4,0.1,0.5,0.2
			c0.1,0.1,0.2,0.3,0.2,0.5c0,0.2-0.1,0.4-0.2,0.5c-0.1,0.1-0.3,0.2-0.5,0.2h-6.6v5.4h4.4c0.2,0,0.4,0.1,0.5,0.2
			c0.1,0.2,0.2,0.3,0.2,0.5c0,0.2-0.1,0.4-0.2,0.5c-0.1,0.1-0.3,0.2-0.5,0.2h-4.4v5.6h6.6c0.2,0,0.4,0.1,0.5,0.2
			c0.1,0.1,0.2,0.3,0.2,0.5c0,0.2-0.1,0.4-0.2,0.5c-0.1,0.1-0.3,0.2-0.5,0.2h-7.4c-0.2,0-0.4-0.1-0.5-0.2c-0.1-0.1-0.2-0.3-0.2-0.5
			V152.3z"/>
		<path class="st3" d="M87.9,159.6l-4.6-6.8c-0.1-0.2-0.2-0.4-0.1-0.6c0-0.2,0.1-0.4,0.3-0.5c0.2-0.1,0.4-0.2,0.6-0.1
			c0.2,0,0.4,0.2,0.5,0.3l4.1,6.1l4.1-6.1c0.1-0.2,0.3-0.3,0.5-0.3c0.2,0,0.4,0,0.6,0.1c0.2,0.1,0.3,0.3,0.3,0.5
			c0,0.2,0,0.4-0.1,0.6l-4.6,6.8v6.8c0,0.2-0.1,0.4-0.2,0.5c-0.1,0.1-0.3,0.2-0.5,0.2c-0.2,0-0.4-0.1-0.5-0.2
			c-0.1-0.1-0.2-0.3-0.2-0.5V159.6z"/>
		<path class="st3" d="M115.1,159.4c0-1.1,0.2-2.1,0.6-3c0.4-0.9,1-1.8,1.7-2.5c0.7-0.7,1.5-1.3,2.5-1.7c0.9-0.4,1.9-0.6,3-0.6
			c1.1,0,2.1,0.2,3,0.6c0.9,0.4,1.8,1,2.5,1.7c0.7,0.7,1.3,1.5,1.7,2.5c0.4,0.9,0.6,2,0.6,3c0,1.1-0.2,2.1-0.6,3
			c-0.4,0.9-1,1.8-1.7,2.5c-0.7,0.7-1.5,1.2-2.5,1.7c-0.9,0.4-1.9,0.6-3,0.6c-1.1,0-2.1-0.2-3-0.6c-0.9-0.4-1.8-1-2.5-1.7
			c-0.7-0.7-1.2-1.5-1.7-2.5C115.3,161.5,115.1,160.5,115.1,159.4z M116.6,159.4c0,0.9,0.2,1.7,0.5,2.4c0.3,0.8,0.8,1.4,1.3,2
			c0.6,0.6,1.2,1,2,1.3c0.8,0.3,1.6,0.5,2.4,0.5c0.9,0,1.7-0.2,2.4-0.5c0.8-0.3,1.4-0.8,2-1.3c0.6-0.6,1-1.2,1.3-2
			c0.3-0.8,0.5-1.6,0.5-2.4c0-0.9-0.2-1.7-0.5-2.4c-0.3-0.8-0.8-1.4-1.3-2c-0.6-0.6-1.2-1-2-1.3c-0.8-0.3-1.6-0.5-2.4-0.5
			c-0.9,0-1.7,0.2-2.4,0.5c-0.8,0.3-1.4,0.8-2,1.3c-0.6,0.6-1,1.2-1.3,2C116.8,157.7,116.6,158.5,116.6,159.4z"/>
		<path class="st3" d="M153.6,152.3c0-0.2,0.1-0.4,0.2-0.5c0.1-0.2,0.3-0.2,0.5-0.2c0.2,0,0.3,0,0.4,0.1c0.1,0.1,0.2,0.2,0.3,0.3
			l8.4,11.8v-11.5c0-0.2,0.1-0.4,0.2-0.5c0.1-0.2,0.3-0.2,0.5-0.2c0.2,0,0.4,0.1,0.5,0.2c0.1,0.1,0.2,0.3,0.2,0.5v14
			c0,0.2-0.1,0.4-0.2,0.5c-0.1,0.1-0.3,0.2-0.5,0.2c-0.2,0-0.3,0-0.4-0.2c-0.1-0.1-0.2-0.2-0.3-0.4l-8.3-11.8v11.5
			c0,0.2-0.1,0.4-0.2,0.5c-0.1,0.1-0.3,0.2-0.5,0.2c-0.2,0-0.4-0.1-0.5-0.2c-0.1-0.1-0.2-0.3-0.2-0.5V152.3z"/>
		<path class="st3" d="M188.8,167.1c-0.2,0-0.4-0.1-0.5-0.2c-0.1-0.1-0.2-0.3-0.2-0.5v-14c0-0.2,0.1-0.4,0.2-0.5
			c0.1-0.2,0.3-0.2,0.5-0.2h4.2c1.1,0,2.1,0.2,3,0.6c0.9,0.4,1.8,1,2.5,1.7c0.7,0.7,1.3,1.5,1.7,2.5c0.4,0.9,0.6,1.9,0.6,3
			c0,1.1-0.2,2.1-0.6,3c-0.4,1-1,1.8-1.7,2.5c-0.7,0.7-1.5,1.3-2.5,1.7c-0.9,0.4-1.9,0.6-3,0.6H188.8z M199.3,159.3
			c0-0.9-0.2-1.7-0.5-2.4c-0.3-0.8-0.8-1.4-1.3-2c-0.6-0.6-1.2-1-2-1.3c-0.8-0.3-1.6-0.5-2.4-0.5h-3.4v12.5h3.4
			c0.9,0,1.7-0.2,2.4-0.5c0.8-0.3,1.4-0.8,2-1.3c0.6-0.6,1-1.2,1.3-2C199.1,161,199.3,160.2,199.3,159.3z"/>
		<path class="st4" d="M252.5,152.3c0-0.2,0.1-0.4,0.2-0.5c0.1-0.2,0.3-0.2,0.5-0.2h8.4c0.2,0,0.4,0.1,0.5,0.2
			c0.1,0.1,0.2,0.3,0.2,0.5c0,0.2-0.1,0.4-0.2,0.5c-0.1,0.1-0.3,0.2-0.5,0.2h-3.5v13.3c0,0.2-0.1,0.4-0.2,0.5
			c-0.1,0.1-0.3,0.2-0.5,0.2c-0.2,0-0.4-0.1-0.5-0.2c-0.1-0.1-0.2-0.3-0.2-0.5v-13.3h-3.5c-0.2,0-0.4-0.1-0.5-0.2
			C252.5,152.7,252.5,152.5,252.5,152.3z"/>
		<path class="st3" d="M285.1,152.3c0-0.2,0.1-0.4,0.2-0.5c0.1-0.2,0.3-0.2,0.5-0.2s0.4,0.1,0.5,0.2c0.1,0.1,0.2,0.3,0.2,0.5v6.8
			h7.8v-6.8c0-0.2,0.1-0.4,0.2-0.5c0.1-0.2,0.3-0.2,0.5-0.2c0.2,0,0.4,0.1,0.5,0.2c0.1,0.1,0.2,0.3,0.2,0.5v14
			c0,0.2-0.1,0.4-0.2,0.5c-0.1,0.1-0.3,0.2-0.5,0.2c-0.2,0-0.4-0.1-0.5-0.2c-0.1-0.1-0.2-0.3-0.2-0.5v-5.7h-7.8v5.7
			c0,0.2-0.1,0.4-0.2,0.5c-0.1,0.1-0.3,0.2-0.5,0.2s-0.4-0.1-0.5-0.2c-0.1-0.1-0.2-0.3-0.2-0.5V152.3z"/>
		<path class="st3" d="M318.9,152.3c0-0.2,0.1-0.4,0.2-0.5c0.1-0.2,0.3-0.2,0.5-0.2h7.4c0.2,0,0.4,0.1,0.5,0.2
			c0.1,0.1,0.2,0.3,0.2,0.5c0,0.2-0.1,0.4-0.2,0.5c-0.1,0.1-0.3,0.2-0.5,0.2h-6.6v5.4h4.4c0.2,0,0.4,0.1,0.5,0.2
			c0.1,0.2,0.2,0.3,0.2,0.5c0,0.2-0.1,0.4-0.2,0.5c-0.1,0.1-0.3,0.2-0.5,0.2h-4.4v5.6h6.6c0.2,0,0.4,0.1,0.5,0.2
			c0.1,0.1,0.2,0.3,0.2,0.5c0,0.2-0.1,0.4-0.2,0.5c-0.1,0.1-0.3,0.2-0.5,0.2h-7.4c-0.2,0-0.4-0.1-0.5-0.2c-0.1-0.1-0.2-0.3-0.2-0.5
			V152.3z"/>
		<path class="st4" d="M379.6,152.3c0-0.2,0.1-0.4,0.2-0.5c0.1-0.2,0.3-0.2,0.5-0.2c0.2,0,0.4,0.1,0.5,0.2c0.1,0.1,0.2,0.3,0.2,0.5
			v13.3h6.2c0.2,0,0.4,0.1,0.5,0.2c0.1,0.1,0.2,0.3,0.2,0.5c0,0.2-0.1,0.4-0.2,0.5c-0.1,0.1-0.3,0.2-0.5,0.2h-6.9
			c-0.2,0-0.4-0.1-0.5-0.2c-0.1-0.1-0.2-0.3-0.2-0.5V152.3z"/>
		<path class="st3" d="M411,152.3c0-0.2,0.1-0.4,0.2-0.5c0.1-0.2,0.3-0.2,0.5-0.2c0.2,0,0.4,0.1,0.5,0.2c0.1,0.1,0.2,0.3,0.2,0.5v14
			c0,0.2-0.1,0.4-0.2,0.5c-0.1,0.1-0.3,0.2-0.5,0.2c-0.2,0-0.4-0.1-0.5-0.2c-0.1-0.1-0.2-0.3-0.2-0.5V152.3z"/>
		<path class="st3" d="M435.8,152.3c0-0.2,0.1-0.4,0.2-0.5c0.1-0.2,0.3-0.2,0.5-0.2c0.2,0,0.3,0,0.4,0.1c0.1,0.1,0.2,0.2,0.3,0.3
			l8.4,11.8v-11.5c0-0.2,0.1-0.4,0.2-0.5c0.1-0.2,0.3-0.2,0.5-0.2c0.2,0,0.4,0.1,0.5,0.2c0.1,0.1,0.2,0.3,0.2,0.5v14
			c0,0.2-0.1,0.4-0.2,0.5c-0.1,0.1-0.3,0.2-0.5,0.2c-0.2,0-0.3,0-0.4-0.2c-0.1-0.1-0.2-0.2-0.3-0.4l-8.3-11.8v11.5
			c0,0.2-0.1,0.4-0.2,0.5c-0.1,0.1-0.3,0.2-0.5,0.2c-0.2,0-0.4-0.1-0.5-0.2c-0.2-0.1-0.2-0.3-0.2-0.5V152.3z"/>
		<path class="st3" d="M470.1,152.3c0-0.2,0.1-0.4,0.2-0.5c0.1-0.2,0.3-0.2,0.5-0.2h7.4c0.2,0,0.4,0.1,0.5,0.2
			c0.1,0.1,0.2,0.3,0.2,0.5c0,0.2-0.1,0.4-0.2,0.5c-0.1,0.1-0.3,0.2-0.5,0.2h-6.6v5.4h4.4c0.2,0,0.4,0.1,0.5,0.2
			c0.1,0.2,0.2,0.3,0.2,0.5c0,0.2-0.1,0.4-0.2,0.5c-0.1,0.1-0.3,0.2-0.5,0.2h-4.4v5.6h6.6c0.2,0,0.4,0.1,0.5,0.2
			c0.1,0.1,0.2,0.3,0.2,0.5c0,0.2-0.1,0.4-0.2,0.5c-0.1,0.1-0.3,0.2-0.5,0.2h-7.4c-0.2,0-0.4-0.1-0.5-0.2c-0.1-0.1-0.2-0.3-0.2-0.5
			V152.3z"/>
	</g>
	<path id="Linea_roja" class="st5" d="M485.5,175.1c0,0.5-0.4,1-1,1h-235c-0.5,0-1-0.4-1-1l0,0c0-0.5,0.4-1,1-1h235
		C485,174.2,485.5,174.6,485.5,175.1L485.5,175.1z"/>
	<path id="Linea_gris" class="st3" d="M249.8,175.1c0,0.5,0.1,1-0.4,1H15.5c-0.5,0-1-0.4-1-1l0,0c0-0.5,0.4-1,1-1h233.8
		C249.9,174.2,249.8,174.6,249.8,175.1L249.8,175.1z"/>
	<path class="st0" d="M480.9,146.9c-2.6,0-4.7-2.1-4.7-4.6c0-2.6,2.1-4.6,4.7-4.6s4.6,2,4.6,4.6
		C485.5,144.9,483.5,146.9,480.9,146.9v-0.8c2.1,0,3.9-1.7,3.9-3.9c0-2.2-1.8-3.9-3.9-3.9c-2.1,0-3.9,1.7-3.9,3.9
		c0,2.2,1.8,3.9,3.9,3.9V146.9L480.9,146.9z"/>
	<path class="st0" d="M479.9,144.9h-0.8v-5.2h2.1c1.2,0,1.8,0.3,1.8,1.4c0,1.1-0.7,1.4-1.3,1.4l1.4,2.5h-0.9l-1.3-2.4h-0.9v-0.8
		l1.2,0c0.6,0,1-0.1,1-0.7c0-0.5-0.3-0.6-1-0.6h-1.2V144.9L479.9,144.9z"/>
</g>
</svg>
