<?xml version="1.0" encoding="utf-8"?>
<!-- Generator: Adobe Illustrator 28.1.0, SVG Export Plug-In . SVG Version: 6.00 Build 0)  -->
<svg version="1.1" id="Capa_1" xmlns="http://www.w3.org/2000/svg" xmlns:xlink="http://www.w3.org/1999/xlink" x="0px" y="0px"
	 viewBox="0 0 406 217" style="enable-background:new 0 0 406 217;" xml:space="preserve">
<style type="text/css">
	.st0{fill:#FFFFFF;}
</style>
<g>
	<g>
		<g>
			<path class="st0" d="M26.8,197.2v-52.7h14.8v8.5c1.2-2.7,3.2-5.1,6.1-7c2.9-1.9,5.6-2.9,8.3-2.9c1.7,0,3.2,0.2,4.7,0.5l-4.1,13.5
				c-1-0.3-2-0.4-3-0.4c-1.3,0-2.6,0.2-3.9,0.7c-2.3,0.8-4.3,2.2-5.8,4.2c-1.5,2-2.3,4.2-2.3,6.6v29.1H26.8z"/>
			<path class="st0" d="M60.9,170.6c0-4.6,0.8-8.7,2.3-12.3c1.5-3.6,3.5-6.5,6-8.7c2.5-2.2,5.3-3.8,8.4-4.9c3.1-1.1,6.3-1.7,9.7-1.7
				c3.3,0,6.2,0.4,9,1.3c2.7,0.9,5.2,2.3,7.3,4.2c2.2,1.9,3.9,4.5,5.1,7.8c1.2,3.3,1.9,7.2,1.9,11.7c0,2.3-0.1,4.5-0.4,6.6H76.7
				c0.5,4.2,2,7.6,4.6,9.9c2.6,2.4,6.1,3.6,10.5,3.6c1.7,0,3.6-0.3,5.7-0.8c2-0.5,3.6-1,4.7-1.4c1.1-0.4,2.7-1.1,4.8-2.1l-1.7,11.4
				c-4.9,2.3-10,3.4-15.4,3.4c-9.2,0-16.3-2.4-21.3-7.3C63.4,186.4,60.9,179.6,60.9,170.6z M76.1,165.8h20.2c0-0.5,0-1,0-1.5
				c0-2.9-0.7-5.3-2-7.3c-1.6-2.3-4-3.5-7.1-3.5c-3.4,0-6,1.1-7.8,3.3C77.5,159,76.4,162,76.1,165.8z"/>
			<path class="st0" d="M116.2,171c0-8.8,2.5-15.6,7.5-20.5c5-4.9,12.1-7.4,21.1-7.4c5.2,0,9.5,0.8,13.1,2.5l-2.9,10
				c-3.2-1.1-6.3-1.7-9.3-1.7c-4.3,0-7.7,1.4-10.1,4.3c-2.4,2.9-3.7,6.9-3.7,12.1c0,3.1,0.4,5.9,1.2,8.3c0.8,2.4,1.9,4.3,3.2,5.6
				c1.3,1.3,2.7,2.3,4.2,3c1.5,0.6,3.1,1,4.7,1c4,0,8-0.9,11.9-2.7l-1.6,11c-4,1.4-8.4,2.2-13.3,2.2c-7.7,0-13.9-2.6-18.8-7.7
				C118.6,185.8,116.2,179.1,116.2,171z"/>
			<path class="st0" d="M164.8,197.2v-68.7l14.8-6.4v42.6l15.9-20.2h16.7l-18.8,21.3l19.9,31.4h-16.8l-12.8-20.5l-4.2,4.6v15.8
				H164.8z"/>
			<path class="st0" d="M217.2,197.2v-52.7h14.8v52.7H217.2z"/>
			<path class="st0" d="M238.7,155v-10.5h7.7v-16l14.8-6.4v22.4h19.6v-16l14.8-6.4v22.4h13.1l-1.5,10.5h-11.6v21.9
				c0,4.1,0.6,7,1.9,8.7c1.3,1.7,3.1,2.5,5.3,2.5c1.4,0,3-0.2,5-0.7l-1.4,9.4c-1.1,0.6-2.6,1-4.5,1.3c-1.9,0.3-3.6,0.5-5.1,0.5
				c-5.6,0-9.7-1.4-12.2-4.1c-2.6-2.8-3.8-7.2-3.8-13.2V155h-19.6v21.9c0,4.1,0.6,7,1.9,8.7c1.3,1.7,3.1,2.5,5.3,2.5
				c1.4,0,3-0.2,5-0.7l-1.4,9.4c-1.1,0.6-2.6,1-4.5,1.3c-1.9,0.3-3.5,0.5-5,0.5c-5.6,0-9.7-1.4-12.2-4.1c-2.6-2.8-3.8-7.2-3.8-13.2
				V155H238.7z"/>
		</g>
		
			<ellipse transform="matrix(0.9239 -0.3827 0.3827 0.9239 -32.1851 95.8235)" class="st0" cx="224.8" cy="128.8" rx="8.5" ry="8.5"/>
	</g>
	<path class="st0" d="M267.2,118.4l15.7-10.8c0,0-4.9-13.2-4.9-30s14.2-43.5,48.3-43.5c12.2,0,38,9.1,38,36.8
		c0,0.3,1,37.8-31.6,37.8c-1,0-29-2.3-29-28.7c0-3.9,4.2-24.5,20.5-24.5c0,0,11.7-0.3,13,9.5c0,0,0.3,11.4-14.3,9.8l-7.2,4.9
		c0,0,5.9,10.1,21.5,20.5c0.3,0.2,7.8-5.5,7.8-5.5s-10.8-7.8-13-11.1c0,0,16-2.3,16-17.3c0,0,2.3-20.5-24.1-21.2
		c0,0-30.3-0.7-32.6,35.5c0,0-1,40.8,42.1,40.8c0,0,46,1.3,46-49.6c0,0-0.7-50.2-52.8-53.5c0,0-58.4-3.9-66.8,60.6
		C259.4,79.5,257.5,93.8,267.2,118.4z"/>
</g>
</svg>
